<?xml version="1.0"?>
<svg xmlns="http://www.w3.org/2000/svg" version="1.1" width="2312.25pt" height="871.5pt" viewBox="-380.4851875305176 -175.7551031112671 2312.25 871.5" preserveAspectRatio="none" xmlns:xlink="http://www.w3.org/1999/xlink">
  <defs>
    <linearGradient id="Gradient0" x1="0.00" y1="0.00" x2="0.71" y2="0.71">
      <stop offset="5%" stop-color="#FFFFFF" stop-opacity="1" />
      <stop offset="95%" stop-color="#C6CEDA" stop-opacity="1" />
    </linearGradient>
    <linearGradient id="Gradient1" x1="0.00" y1="0.00" x2="0.71" y2="0.71">
      <stop offset="5%" stop-color="#FFFFFF" stop-opacity="1" />
      <stop offset="95%" stop-color="#C6CEDA" stop-opacity="1" />
    </linearGradient>
  </defs>
  <path d="M341.0303649902344,334.6669616699219 L373.08929443359375,333.8570251464844 " stroke="#6E6E6E" fill="none" stroke-width="1" stroke-opacity="1" />
  <path d="M378.7874755859375,333.7130432128906 L373.1453857421875,336.0762939453125 L373.0332336425781,331.6377258300781 L378.7874755859375,333.7130432128906 " stroke="none" fill="#6E6E6E" fill-rule="evenodd" stroke-width="0" fill-opacity="1" />
  <path d="M378.7874755859375,333.7130432128906 L373.1453857421875,336.0762939453125 L373.0332336425781,331.6377258300781 L378.7874755859375,333.7130432128906 " stroke="#6E6E6E" fill="none" stroke-width="1" stroke-opacity="1" />
  <path d="M345.5176086425781,272.2381286621094 L377.5892333984375,271.4403381347656 " stroke="#6E6E6E" fill="none" stroke-width="1" stroke-opacity="1" />
  <path d="M383.2874755859375,271.298583984375 L377.6444396972656,273.6596374511719 L377.5340270996094,269.22100830078125 L383.2874755859375,271.298583984375 " stroke="none" fill="#6E6E6E" fill-rule="evenodd" stroke-width="0" fill-opacity="1" />
  <path d="M383.2874755859375,271.298583984375 L377.6444396972656,273.6596374511719 L377.5340270996094,269.22100830078125 L383.2874755859375,271.298583984375 " stroke="#6E6E6E" fill="none" stroke-width="1" stroke-opacity="1" />
  <path d="M1114.43896484375,81.45075225830078 L1216.4622802734375,63.406944274902344 " stroke="#6E6E6E" fill="none" stroke-width="1" stroke-opacity="1" />
  <path d="M1222.0751953125,62.41425323486328 L1216.848876953125,65.593017578125 L1216.07568359375,61.22087478637695 L1222.0751953125,62.41425323486328 " stroke="none" fill="#6E6E6E" fill-rule="evenodd" stroke-width="0" fill-opacity="1" />
  <path d="M1222.0751953125,62.41425323486328 L1216.848876953125,65.593017578125 L1216.07568359375,61.22087478637695 L1222.0751953125,62.41425323486328 " stroke="#6E6E6E" fill="none" stroke-width="1" stroke-opacity="1" />
  <path d="M1114.43896484375,94.30023956298828 L1216.342041015625,111.47665405273438 " stroke="#6E6E6E" fill="none" stroke-width="1" stroke-opacity="1" />
  <path d="M1221.9627685546875,112.42406463623047 L1215.9730224609375,113.66577911376953 L1216.7110595703125,109.28753662109375 L1221.9627685546875,112.42406463623047 " stroke="none" fill="#6E6E6E" fill-rule="evenodd" stroke-width="0" fill-opacity="1" />
  <path d="M1221.9627685546875,112.42406463623047 L1215.9730224609375,113.66577911376953 L1216.7110595703125,109.28753662109375 L1221.9627685546875,112.42406463623047 " stroke="#6E6E6E" fill="none" stroke-width="1" stroke-opacity="1" />
  <path d="M1076.04052734375,281.4750061035156 L1077.056884765625,117.42982482910156 " stroke="#6E6E6E" fill="none" stroke-width="1" stroke-opacity="1" />
  <path d="M1077.0921630859375,111.72994232177734 L1079.27685546875,117.4435806274414 L1074.8369140625,117.41607666015625 L1077.0921630859375,111.72994232177734 " stroke="none" fill="#6E6E6E" fill-rule="evenodd" stroke-width="0" fill-opacity="1" />
  <path d="M1077.0921630859375,111.72994232177734 L1079.27685546875,117.4435806274414 L1074.8369140625,117.41607666015625 L1077.0921630859375,111.72994232177734 " stroke="#6E6E6E" fill="none" stroke-width="1" stroke-opacity="1" />
  <path d="M342.0218200683594,86.91536712646484 L1034.3389892578125,87.96489715576172 " stroke="#6E6E6E" fill="none" stroke-width="1" stroke-opacity="1" />
  <path d="M1040.0389404296875,87.97354125976562 L1034.3355712890625,90.18489837646484 L1034.34228515625,85.74490356445312 L1040.0389404296875,87.97354125976562 " stroke="none" fill="#6E6E6E" fill-rule="evenodd" stroke-width="0" fill-opacity="1" />
  <path d="M1040.0389404296875,87.97354125976562 L1034.3355712890625,90.18489837646484 L1034.34228515625,85.74490356445312 L1040.0389404296875,87.97354125976562 " stroke="#6E6E6E" fill="none" stroke-width="1" stroke-opacity="1" />
  <path d="M373.5374755859375,223.5 L733.9405517578125,223.5 L733.9405517578125,223.5 C736.0116577148438,223.49998474121094 737.6905517578125,225.17892456054688 737.6905517578125,227.24998474121094 C737.6905517578125,227.24998474121094 737.6905517578125,227.25 737.6905517578125,227.25 L737.6905517578125,227.25 L737.6905517578125,361.72320556640625 L737.6905517578125,361.72320556640625 C737.6905517578125,363.7942810058594 736.0116577148438,365.47320556640625 733.9405517578125,365.47320556640625 L733.9405517578125,365.47320556640625 L373.5374755859375,365.47320556640625 L373.5374755859375,365.47320556640625 C371.4664001464844,365.47320556640625 369.7874755859375,363.7942810058594 369.7874755859375,361.72320556640625 L369.7874755859375,227.25 L369.7874450683594,227.25 C369.7874450683594,225.17892456054688 371.4664001464844,223.5 373.5374450683594,223.49998474121094 " stroke="none" fill="none" fill-rule="evenodd" stroke-width="0" fill-opacity="0" />
  <path d="M369.7874755859375,223.5 L737.6905517578125,223.5 L737.6905517578125,237.6732177734375 L369.7874755859375,237.6732177734375  z" stroke="none" fill="#F2E279" fill-rule="evenodd" stroke-width="0" fill-opacity="1" />
  <text x="4.981494903564453" y="13.133702278137207" dx="0" dy="0" font-family="Segoe UI" font-size="8.249999754130847pt" fill="#000000" style="text-anchor:start" transform="matrix(0.750000 0.000000 0.000000 0.750000 369.7874755859375 223.5)">Selecting only relevant data (roads; primary, secondary, tertiary) and health facilities in Uganda</text>
  <path d="M369.7874755859375,237.6732177734375 L737.6905517578125,237.6732177734375 " stroke="#F2E279" fill="none" stroke-width="5" stroke-opacity="1" />
  <path d="M373.5374755859375,223.5 L733.9405517578125,223.5 L733.9405517578125,223.5 C736.0116577148438,223.49998474121094 737.6905517578125,225.17892456054688 737.6905517578125,227.24998474121094 C737.6905517578125,227.24998474121094 737.6905517578125,227.25 737.6905517578125,227.25 L737.6905517578125,227.25 L737.6905517578125,361.72320556640625 L737.6905517578125,361.72320556640625 C737.6905517578125,363.7942810058594 736.0116577148438,365.47320556640625 733.9405517578125,365.47320556640625 L733.9405517578125,365.47320556640625 L373.5374755859375,365.47320556640625 L373.5374755859375,365.47320556640625 C371.4664001464844,365.47320556640625 369.7874755859375,363.7942810058594 369.7874755859375,361.72320556640625 L369.7874755859375,227.25 L369.7874450683594,227.25 C369.7874450683594,225.17892456054688 371.4664001464844,223.5 373.5374450683594,223.49998474121094 " stroke="#F2E279" fill="none" stroke-width="5" stroke-opacity="1" />
  <path d="M734.8558959960938,230.58660888671875 C734.8558959960938,232.93490600585938 732.9522705078125,234.8385772705078 730.6039428710938,234.8385772705078 C728.2556762695312,234.8385772705078 726.3519897460938,232.93490600585938 726.3519897460938,230.58660888671875 C726.3519897460938,228.23831176757812 728.2556762695312,226.3346405029297 730.6039428710938,226.3346405029297 C732.9522705078125,226.3346405029297 734.8558959960938,228.23831176757812 734.8558959960938,230.58660888671875 " stroke="none" fill="url(#Gradient0)" fill-rule="evenodd" stroke-width="0" fill-opacity="1" />
  <path d="M734.8558959960938,230.58660888671875 C734.8558959960938,232.93490600585938 732.9522705078125,234.8385772705078 730.6039428710938,234.8385772705078 C728.2556762695312,234.8385772705078 726.3519897460938,232.93490600585938 726.3519897460938,230.58660888671875 C726.3519897460938,228.23831176757812 728.2556762695312,226.3346405029297 730.6039428710938,226.3346405029297 C732.9522705078125,226.3346405029297 734.8558959960938,228.23831176757812 734.8558959960938,230.58660888671875 " stroke="#808080" fill="none" stroke-width="1" stroke-opacity="1" />
  <path d="M730.6039428710938,229.7362060546875 L728.9031982421875,231.43699645996094 " stroke="#000000" fill="none" stroke-width="1" stroke-opacity="1" />
  <path d="M730.6039428710938,229.7362060546875 L732.3047485351562,231.43699645996094 " stroke="#000000" fill="none" stroke-width="1" stroke-opacity="1" />
  <path d="M730.6039428710938,231.2362060546875 L730.4031982421875,231.43699645996094 " stroke="#000000" fill="none" stroke-width="1" stroke-opacity="1" />
  <path d="M730.6039428710938,231.2362060546875 L730.8047485351562,231.43699645996094 " stroke="#000000" fill="none" stroke-width="1" stroke-opacity="1" />
  <path d="M453.1875,332.7732238769531 L462.4875183105469,332.7732238769531 " stroke="#6E6E6E" fill="none" stroke-width="1" stroke-opacity="1" />
  <path d="M468.1875,332.7732238769531 L462.48748779296875,334.99322509765625 L462.48748779296875,330.5532531738281 L468.1875,332.7732238769531 " stroke="none" fill="#6E6E6E" fill-rule="evenodd" stroke-width="0" fill-opacity="1" />
  <path d="M468.1875,332.7732238769531 L462.48748779296875,334.99322509765625 L462.48748779296875,330.5532531738281 L468.1875,332.7732238769531 " stroke="#6E6E6E" fill="none" stroke-width="1" stroke-opacity="1" />
  <path d="M457.6875,270.37322998046875 L466.9875183105469,270.37322998046875 " stroke="#6E6E6E" fill="none" stroke-width="1" stroke-opacity="1" />
  <path d="M472.6875,270.3731994628906 L466.98748779296875,272.59320068359375 L466.98748779296875,268.1532287597656 L472.6875,270.3731994628906 " stroke="none" fill="#6E6E6E" fill-rule="evenodd" stroke-width="0" fill-opacity="1" />
  <path d="M472.6875,270.3731994628906 L466.98748779296875,272.59320068359375 L466.98748779296875,268.1532287597656 L472.6875,270.3731994628906 " stroke="#6E6E6E" fill="none" stroke-width="1" stroke-opacity="1" />
  <path d="M387.2914123535156,309.0732421875 L444.68353271484375,309.0732421875 L444.6835021972656,309.0732421875 C449.3800964355469,309.0732116699219 453.18743896484375,312.88055419921875 453.18743896484375,317.5771484375 C453.18743896484375,317.5771484375 453.18743896484375,317.5771789550781 453.18743896484375,317.5771789550781 L453.1874694824219,317.5771789550781 L453.1874694824219,347.96929931640625 L453.18743896484375,347.96929931640625 C453.18743896484375,352.6658935546875 449.380126953125,356.4732360839844 444.68353271484375,356.4732360839844 L444.68353271484375,356.4732360839844 L387.2914123535156,356.4732360839844 L387.2914123535156,356.4732360839844 C382.5948181152344,356.4732360839844 378.7874755859375,352.6658935546875 378.7874755859375,347.96929931640625 L378.7874755859375,317.5771789550781 L378.7874450683594,317.5771789550781 C378.7874450683594,312.8805847167969 382.59478759765625,309.0732421875 387.2913818359375,309.0732116699219 " stroke="none" fill="#F2E279" fill-rule="evenodd" stroke-width="0" fill-opacity="1" />
  <text x="32.97768783569336" y="35.284881591796875" dx="0" dy="0" font-family="Segoe UI" font-size="8.249999754130847pt" fill="#000000" style="text-anchor:start" transform="matrix(0.750000 0.000000 0.000000 0.750000 378.7874755859375 309.0732421875)">Select</text>
  <path d="M387.2914123535156,309.0732421875 L444.68353271484375,309.0732421875 L444.6835021972656,309.0732421875 C449.3800964355469,309.0732116699219 453.18743896484375,312.88055419921875 453.18743896484375,317.5771484375 C453.18743896484375,317.5771484375 453.18743896484375,317.5771789550781 453.18743896484375,317.5771789550781 L453.1874694824219,317.5771789550781 L453.1874694824219,347.96929931640625 L453.18743896484375,347.96929931640625 C453.18743896484375,352.6658935546875 449.380126953125,356.4732360839844 444.68353271484375,356.4732360839844 L444.68353271484375,356.4732360839844 L387.2914123535156,356.4732360839844 L387.2914123535156,356.4732360839844 C382.5948181152344,356.4732360839844 378.7874755859375,352.6658935546875 378.7874755859375,347.96929931640625 L378.7874755859375,317.5771789550781 L378.7874450683594,317.5771789550781 C378.7874450683594,312.8805847167969 382.59478759765625,309.0732421875 387.2913818359375,309.0732116699219 " stroke="none" fill="none" stroke-width="0.75" stroke-opacity="0" />
  <path d="M630.5249633789062,332.7732238769531 C630.5249633789062,345.86236572265625 594.1844482421875,356.4732360839844 549.3562622070312,356.4732360839844 C504.5279846191406,356.4732360839844 468.1875,345.86236572265625 468.1875,332.7732238769531 C468.1875,332.7732238769531 468.1875,332.7732238769531 468.1875,332.7732238769531 L468.1874694824219,332.77325439453125 C468.18743896484375,319.68408203125 504.52789306640625,309.0732421875 549.3561401367188,309.0732421875 C594.1843872070312,309.0732116699219 630.52490234375,319.6840515136719 630.5249633789062,332.7732238769531 C630.5249633789062,332.7732238769531 630.5249633789062,332.7732238769531 630.5249633789062,332.7732238769531 " stroke="none" fill="#83CC7C" fill-rule="evenodd" stroke-width="0" fill-opacity="1" />
  <text x="16.828523635864258" y="35.284881591796875" dx="0" dy="0" font-family="Segoe UI" font-size="8.249999754130847pt" fill="#000000" style="text-anchor:start" transform="matrix(0.750000 0.000000 0.000000 0.750000 468.1875 309.0732421875)">hotosm_uga_roads_lin_Project_select</text>
  <path d="M630.5249633789062,332.7732238769531 C630.5249633789062,345.86236572265625 594.1844482421875,356.4732360839844 549.3562622070312,356.4732360839844 C504.5279846191406,356.4732360839844 468.1875,345.86236572265625 468.1875,332.7732238769531 C468.1875,332.7732238769531 468.1875,332.7732238769531 468.1875,332.7732238769531 L468.1874694824219,332.77325439453125 C468.18743896484375,319.68408203125 504.52789306640625,309.0732421875 549.3561401367188,309.0732421875 C594.1843872070312,309.0732116699219 630.52490234375,319.6840515136719 630.5249633789062,332.7732238769531 C630.5249633789062,332.7732238769531 630.5249633789062,332.7732238769531 630.5249633789062,332.7732238769531 " stroke="none" fill="none" stroke-width="0.75" stroke-opacity="0" />
  <path d="M391.7914123535156,246.67323303222656 L449.18353271484375,246.67323303222656 L449.1835021972656,246.67323303222656 C453.8800964355469,246.6732177734375 457.68743896484375,250.48056030273438 457.68743896484375,255.17715454101562 C457.68743896484375,255.17715454101562 457.68743896484375,255.1771697998047 457.68743896484375,255.1771697998047 L457.6874694824219,255.1771697998047 L457.6874694824219,285.56927490234375 L457.68743896484375,285.56927490234375 C457.68743896484375,290.265869140625 453.880126953125,294.0732116699219 449.18353271484375,294.0732116699219 L449.18353271484375,294.0732116699219 L391.7914123535156,294.0732116699219 L391.7914123535156,294.0732116699219 C387.0948181152344,294.0732116699219 383.2874755859375,290.265869140625 383.2874755859375,285.56927490234375 L383.2874755859375,255.1771697998047 L383.2874450683594,255.1771697998047 C383.2874450683594,250.48057556152344 387.09478759765625,246.67323303222656 391.7913818359375,246.6732177734375 " stroke="none" fill="#F2E279" fill-rule="evenodd" stroke-width="0" fill-opacity="1" />
  <text x="25.18768882751465" y="35.284881591796875" dx="0" dy="0" font-family="Segoe UI" font-size="8.249999754130847pt" fill="#000000" style="text-anchor:start" transform="matrix(0.750000 0.000000 0.000000 0.750000 383.2874755859375 246.67323303222656)">Select (2)</text>
  <path d="M391.7914123535156,246.67323303222656 L449.18353271484375,246.67323303222656 L449.1835021972656,246.67323303222656 C453.8800964355469,246.6732177734375 457.68743896484375,250.48056030273438 457.68743896484375,255.17715454101562 C457.68743896484375,255.17715454101562 457.68743896484375,255.1771697998047 457.68743896484375,255.1771697998047 L457.6874694824219,255.1771697998047 L457.6874694824219,285.56927490234375 L457.68743896484375,285.56927490234375 C457.68743896484375,290.265869140625 453.880126953125,294.0732116699219 449.18353271484375,294.0732116699219 L449.18353271484375,294.0732116699219 L391.7914123535156,294.0732116699219 L391.7914123535156,294.0732116699219 C387.0948181152344,294.0732116699219 383.2874755859375,290.265869140625 383.2874755859375,285.56927490234375 L383.2874755859375,255.1771697998047 L383.2874450683594,255.1771697998047 C383.2874450683594,250.48057556152344 387.09478759765625,246.67323303222656 391.7913818359375,246.6732177734375 " stroke="none" fill="none" stroke-width="0.75" stroke-opacity="0" />
  <path d="M655.6312255859375,270.3731994628906 C655.6312255859375,283.4623718261719 614.6778564453125,294.0732116699219 564.1593627929688,294.0732116699219 C513.640869140625,294.0732116699219 472.6875,283.4623718261719 472.6875,270.37322998046875 C472.6875,270.37322998046875 472.6875,270.37322998046875 472.6875,270.37322998046875 L472.6875,270.37322998046875 C472.68743896484375,257.2840881347656 513.6407470703125,246.67323303222656 564.1593017578125,246.67323303222656 C614.6777954101562,246.6732177734375 655.6311645507812,257.2840576171875 655.6312255859375,270.37322998046875 C655.6312255859375,270.37322998046875 655.6312255859375,270.37322998046875 655.6312255859375,270.37322998046875 " stroke="none" fill="#83CC7C" fill-rule="evenodd" stroke-width="0" fill-opacity="1" />
  <text x="49.629520416259766" y="35.284881591796875" dx="0" dy="0" font-family="Segoe UI" font-size="8.249999754130847pt" fill="#000000" style="text-anchor:start" transform="matrix(0.750000 0.000000 0.000000 0.750000 472.6875 246.67323303222656)">subsaharan_health_fa__Select</text>
  <path d="M655.6312255859375,270.3731994628906 C655.6312255859375,283.4623718261719 614.6778564453125,294.0732116699219 564.1593627929688,294.0732116699219 C513.640869140625,294.0732116699219 472.6875,283.4623718261719 472.6875,270.37322998046875 C472.6875,270.37322998046875 472.6875,270.37322998046875 472.6875,270.37322998046875 L472.6875,270.37322998046875 C472.68743896484375,257.2840881347656 513.6407470703125,246.67323303222656 564.1593017578125,246.67323303222656 C614.6777954101562,246.6732177734375 655.6311645507812,257.2840576171875 655.6312255859375,270.37322998046875 C655.6312255859375,270.37322998046875 655.6312255859375,270.37322998046875 655.6312255859375,270.37322998046875 " stroke="none" fill="none" stroke-width="0.75" stroke-opacity="0" />
  <path d="M741,283.5 L965.0296020507812,283.5 L965.0296020507812,321 L741,321 L741,283.5 " stroke="none" fill="none" fill-rule="evenodd" stroke-width="0" fill-opacity="0" />
  <text x="78.36552429199219" y="33.039894104003906" dx="0" dy="0" font-family="Segoe UI" font-size="17.99999946355821pt" fill="#555555" style="text-anchor:start" font-weight="bold" transform="matrix(0.750000 0.000000 0.000000 0.750000 741 283.5)">AccessMod</text>
  <path d="M741,283.5 L965.0296020507812,283.5 L965.0296020507812,321 L741,321 L741,283.5 " stroke="none" fill="none" stroke-width="0.75" stroke-opacity="0" />
  <path d="M1175.13623046875,305.1732482910156 C1175.13623046875,318.26239013671875 1130.7037353515625,328.8732604980469 1075.8936767578125,328.8732604980469 C1021.0835571289062,328.8732604980469 976.651123046875,318.26239013671875 976.651123046875,305.1732482910156 C976.651123046875,305.1732482910156 976.651123046875,305.1732482910156 976.651123046875,305.1732482910156 L976.6510620117188,305.17327880859375 C976.6510620117188,292.0841064453125 1021.0834350585938,281.4732666015625 1075.8935546875,281.4732666015625 C1130.7037353515625,281.4732360839844 1175.1361083984375,292.0840759277344 1175.13623046875,305.1732482910156 C1175.13623046875,305.1732482910156 1175.13623046875,305.1732482910156 1175.13623046875,305.1732482910156 " stroke="none" fill="#70AECC" fill-rule="evenodd" stroke-width="0" fill-opacity="1" />
  <text x="23.817522048950195" y="35.284881591796875" dx="0" dy="0" font-family="Segoe UI" font-size="8.249999754130847pt" fill="#000000" style="text-anchor:start" transform="matrix(0.750000 0.000000 0.000000 0.750000 976.651123046875 281.4732666015625)">raster_travel_time_Lower_travel_time_V1.img</text>
  <path d="M1175.13623046875,305.1732482910156 C1175.13623046875,318.26239013671875 1130.7037353515625,328.8732604980469 1075.8936767578125,328.8732604980469 C1021.0835571289062,328.8732604980469 976.651123046875,318.26239013671875 976.651123046875,305.1732482910156 C976.651123046875,305.1732482910156 976.651123046875,305.1732482910156 976.651123046875,305.1732482910156 L976.6510620117188,305.17327880859375 C976.6510620117188,292.0841064453125 1021.0834350585938,281.4732666015625 1075.8935546875,281.4732666015625 C1130.7037353515625,281.4732360839844 1175.1361083984375,292.0840759277344 1175.13623046875,305.1732482910156 C1175.13623046875,305.1732482910156 1175.13623046875,305.1732482910156 1175.13623046875,305.1732482910156 " stroke="none" fill="none" stroke-width="0.75" stroke-opacity="0" />
  <path d="M1048.54296875,64.32994079589844 L1105.93505859375,64.32994079589844 L1105.93505859375,64.32994079589844 C1110.631591796875,64.3299331665039 1114.43896484375,68.13726806640625 1114.43896484375,72.83386993408203 C1114.43896484375,72.83386993408203 1114.43896484375,72.83387756347656 1114.43896484375,72.83387756347656 L1114.43896484375,72.83387756347656 L1114.43896484375,103.22600555419922 L1114.43896484375,103.22599792480469 C1114.43896484375,107.92259216308594 1110.6317138671875,111.72993469238281 1105.93505859375,111.72993469238281 L1105.93505859375,111.72993469238281 L1048.54296875,111.72993469238281 L1048.54296875,111.72993469238281 C1043.8463134765625,111.72993469238281 1040.0390625,107.92259979248047 1040.0390625,103.22600555419922 L1040.0390625,72.83387756347656 L1040.0389404296875,72.83387756347656 C1040.0389404296875,68.13728332519531 1043.8463134765625,64.32994079589844 1048.54296875,64.3299331665039 " stroke="none" fill="#F2E279" fill-rule="evenodd" stroke-width="0" fill-opacity="1" />
  <text x="7.1918559074401855" y="27.96988296508789" dx="0" dy="0" font-family="Segoe UI" font-size="8.249999754130847pt" fill="#000000" style="text-anchor:start" transform="matrix(0.750000 0.000000 0.000000 0.750000 1040.0390625 64.32994079589844)">Extract Values To </text>
  <text x="35.53885269165039" y="42.599884033203125" dx="0" dy="0" font-family="Segoe UI" font-size="8.249999754130847pt" fill="#000000" style="text-anchor:start" transform="matrix(0.750000 0.000000 0.000000 0.750000 1040.0390625 64.32994079589844)">Table</text>
  <path d="M1048.54296875,64.32994079589844 L1105.93505859375,64.32994079589844 L1105.93505859375,64.32994079589844 C1110.631591796875,64.3299331665039 1114.43896484375,68.13726806640625 1114.43896484375,72.83386993408203 C1114.43896484375,72.83386993408203 1114.43896484375,72.83387756347656 1114.43896484375,72.83387756347656 L1114.43896484375,72.83387756347656 L1114.43896484375,103.22600555419922 L1114.43896484375,103.22599792480469 C1114.43896484375,107.92259216308594 1110.6317138671875,111.72993469238281 1105.93505859375,111.72993469238281 L1105.93505859375,111.72993469238281 L1048.54296875,111.72993469238281 L1048.54296875,111.72993469238281 C1043.8463134765625,111.72993469238281 1040.0390625,107.92259979248047 1040.0390625,103.22600555419922 L1040.0390625,72.83387756347656 L1040.0389404296875,72.83387756347656 C1040.0389404296875,68.13728332519531 1043.8463134765625,64.32994079589844 1048.54296875,64.3299331665039 " stroke="none" fill="none" stroke-width="0.75" stroke-opacity="0" />
  <path d="M1295.090576171875,56.079933166503906 C1295.090576171875,69.16907501220703 1278.435546875,79.7799301147461 1257.890625,79.77993774414062 C1237.3455810546875,79.77993774414062 1220.690673828125,69.16909790039062 1220.6905517578125,56.079952239990234 L1220.6905517578125,56.0799560546875 C1220.6905517578125,42.990806579589844 1237.3455810546875,32.379947662353516 1257.890625,32.379940032958984 C1278.435546875,32.37992858886719 1295.090576171875,42.99077224731445 1295.090576171875,56.07993698120117 C1295.090576171875,56.07993698120117 1295.090576171875,56.07993698120117 1295.090576171875,56.07993698120117 " stroke="none" fill="#83CC7C" fill-rule="evenodd" stroke-width="0" fill-opacity="1" />
  <text x="15.217855453491211" y="35.284881591796875" dx="0" dy="0" font-family="Segoe UI" font-size="8.249999754130847pt" fill="#000000" style="text-anchor:start" transform="matrix(0.750000 0.000000 0.000000 0.750000 1220.690673828125 32.379940032958984)">Output table</text>
  <path d="M1295.090576171875,56.079933166503906 C1295.090576171875,69.16907501220703 1278.435546875,79.7799301147461 1257.890625,79.77993774414062 C1237.3455810546875,79.77993774414062 1220.690673828125,69.16909790039062 1220.6905517578125,56.079952239990234 L1220.6905517578125,56.0799560546875 C1220.6905517578125,42.990806579589844 1237.3455810546875,32.379947662353516 1257.890625,32.379940032958984 C1278.435546875,32.37992858886719 1295.090576171875,42.99077224731445 1295.090576171875,56.07993698120117 C1295.090576171875,56.07993698120117 1295.090576171875,56.07993698120117 1295.090576171875,56.07993698120117 " stroke="none" fill="none" stroke-width="0.75" stroke-opacity="0" />
  <path d="M1295.090576171875,118.47992706298828 C1295.090576171875,131.56907653808594 1278.435546875,142.179931640625 1257.890625,142.179931640625 C1237.3455810546875,142.179931640625 1220.690673828125,131.569091796875 1220.6905517578125,118.47994995117188 L1220.6905517578125,118.47994995117188 C1220.6905517578125,105.39080047607422 1237.3455810546875,94.77994537353516 1257.890625,94.77993774414062 C1278.435546875,94.77992248535156 1295.090576171875,105.3907699584961 1295.090576171875,118.47993469238281 C1295.090576171875,118.47993469238281 1295.090576171875,118.47993469238281 1295.090576171875,118.47993469238281 " stroke="none" fill="#E7E7E7" fill-rule="evenodd" stroke-width="0" fill-opacity="1" />
  <text x="13.62785530090332" y="27.96988296508789" dx="0" dy="0" font-family="Segoe UI" font-size="8.249999754130847pt" fill="#000000" style="text-anchor:start" transform="matrix(0.750000 0.000000 0.000000 0.750000 1220.690673828125 94.77993774414062)">Output raster </text>
  <text x="17.72852325439453" y="42.599884033203125" dx="0" dy="0" font-family="Segoe UI" font-size="8.249999754130847pt" fill="#000000" style="text-anchor:start" transform="matrix(0.750000 0.000000 0.000000 0.750000 1220.690673828125 94.77993774414062)">names table</text>
  <path d="M1295.090576171875,118.47992706298828 C1295.090576171875,131.56907653808594 1278.435546875,142.179931640625 1257.890625,142.179931640625 C1237.3455810546875,142.179931640625 1220.690673828125,131.569091796875 1220.6905517578125,118.47994995117188 L1220.6905517578125,118.47994995117188 C1220.6905517578125,105.39080047607422 1237.3455810546875,94.77994537353516 1257.890625,94.77993774414062 C1278.435546875,94.77992248535156 1295.090576171875,105.3907699584961 1295.090576171875,118.47993469238281 C1295.090576171875,118.47993469238281 1295.090576171875,118.47993469238281 1295.090576171875,118.47993469238281 " stroke="none" fill="none" stroke-width="0.75" stroke-opacity="0" />
  <path d="M18,39.936622619628906 L351.0374755859375,39.936622619628906 L351.0374450683594,39.936622619628906 C353.1085510253906,39.93661880493164 354.7874450683594,41.61554718017578 354.7874450683594,43.68661880493164 C354.7874450683594,43.68661880493164 354.7874450683594,43.686622619628906 354.7874450683594,43.686622619628906 L354.7874755859375,43.686622619628906 L354.7874755859375,480.1098327636719 L354.7874450683594,480.10980224609375 C354.7874450683594,482.180908203125 353.1085510253906,483.85980224609375 351.0374755859375,483.85980224609375 L351.0374755859375,483.8598327636719 L18,483.8598327636719 L18.000001907348633,483.85980224609375 C15.928934097290039,483.8598327636719 14.250000953674316,482.180908203125 14.25,480.1098327636719 L14.25,43.686622619628906 L14.249999046325684,43.686622619628906 C14.249998092651367,41.61555480957031 15.92892837524414,39.936622619628906 17.9999942779541,39.93661880493164 " stroke="none" fill="none" fill-rule="evenodd" stroke-width="0" fill-opacity="0" />
  <path d="M14.25,39.936622619628906 L354.7874755859375,39.936622619628906 L354.7874755859375,54.10984802246094 L14.25,54.10984802246094  z" stroke="none" fill="#F2E279" fill-rule="evenodd" stroke-width="0" fill-opacity="1" />
  <text x="87.23866271972656" y="13.133702278137207" dx="0" dy="0" font-family="Segoe UI" font-size="8.249999754130847pt" fill="#000000" style="text-anchor:start" transform="matrix(0.750000 0.000000 0.000000 0.750000 14.25 39.936622619628906)">Projecting from WGS85 to Arc_1960_UTM_Zone_35N</text>
  <path d="M14.25,54.10984802246094 L354.7874755859375,54.10984802246094 " stroke="#F2E279" fill="none" stroke-width="5" stroke-opacity="1" />
  <path d="M18,39.936622619628906 L351.0374755859375,39.936622619628906 L351.0374450683594,39.936622619628906 C353.1085510253906,39.93661880493164 354.7874450683594,41.61554718017578 354.7874450683594,43.68661880493164 C354.7874450683594,43.68661880493164 354.7874450683594,43.686622619628906 354.7874450683594,43.686622619628906 L354.7874755859375,43.686622619628906 L354.7874755859375,480.1098327636719 L354.7874450683594,480.10980224609375 C354.7874450683594,482.180908203125 353.1085510253906,483.85980224609375 351.0374755859375,483.85980224609375 L351.0374755859375,483.8598327636719 L18,483.8598327636719 L18.000001907348633,483.85980224609375 C15.928934097290039,483.8598327636719 14.250000953674316,482.180908203125 14.25,480.1098327636719 L14.25,43.686622619628906 L14.249999046325684,43.686622619628906 C14.249998092651367,41.61555480957031 15.92892837524414,39.936622619628906 17.9999942779541,39.93661880493164 " stroke="#F2E279" fill="none" stroke-width="5" stroke-opacity="1" />
  <path d="M351.95281982421875,47.02323532104492 C351.95281982421875,49.37153244018555 350.04913330078125,51.275203704833984 347.70086669921875,51.275203704833984 C345.3525695800781,51.275203704833984 343.4488830566406,49.37153244018555 343.4488830566406,47.02323532104492 C343.4488830566406,44.6749382019043 345.3525695800781,42.77126693725586 347.70086669921875,42.77126693725586 C350.04913330078125,42.77126693725586 351.95281982421875,44.6749382019043 351.95281982421875,47.02323532104492 " stroke="none" fill="url(#Gradient1)" fill-rule="evenodd" stroke-width="0" fill-opacity="1" />
  <path d="M351.95281982421875,47.02323532104492 C351.95281982421875,49.37153244018555 350.04913330078125,51.275203704833984 347.70086669921875,51.275203704833984 C345.3525695800781,51.275203704833984 343.4488830566406,49.37153244018555 343.4488830566406,47.02323532104492 C343.4488830566406,44.6749382019043 345.3525695800781,42.77126693725586 347.70086669921875,42.77126693725586 C350.04913330078125,42.77126693725586 351.95281982421875,44.6749382019043 351.95281982421875,47.02323532104492 " stroke="#808080" fill="none" stroke-width="1" stroke-opacity="1" />
  <path d="M347.70086669921875,46.1728401184082 L346.0000915527344,47.87363052368164 " stroke="#000000" fill="none" stroke-width="1" stroke-opacity="1" />
  <path d="M347.70086669921875,46.1728401184082 L349.40167236328125,47.87363052368164 " stroke="#000000" fill="none" stroke-width="1" stroke-opacity="1" />
  <path d="M347.70086669921875,47.6728401184082 L347.5000915527344,47.87363052368164 " stroke="#000000" fill="none" stroke-width="1" stroke-opacity="1" />
  <path d="M347.70086669921875,47.6728401184082 L347.90167236328125,47.87363052368164 " stroke="#000000" fill="none" stroke-width="1" stroke-opacity="1" />
  <path d="M187.79998779296875,274.0098571777344 L197.09999084472656,274.0098571777344 " stroke="#6E6E6E" fill="none" stroke-width="1" stroke-opacity="1" />
  <path d="M202.79998779296875,274.00982666015625 L197.0999755859375,276.2298278808594 L197.0999755859375,271.78985595703125 L202.79998779296875,274.00982666015625 " stroke="none" fill="#6E6E6E" fill-rule="evenodd" stroke-width="0" fill-opacity="1" />
  <path d="M202.79998779296875,274.00982666015625 L197.0999755859375,276.2298278808594 L197.0999755859375,271.78985595703125 L202.79998779296875,274.00982666015625 " stroke="#6E6E6E" fill="none" stroke-width="1" stroke-opacity="1" />
  <path d="M187.79998779296875,86.80984497070312 L197.09999084472656,86.80984497070312 " stroke="#6E6E6E" fill="none" stroke-width="1" stroke-opacity="1" />
  <path d="M202.79998779296875,86.80984497070312 L197.0999755859375,89.02984619140625 L197.0999755859375,84.58985137939453 L202.79998779296875,86.80984497070312 " stroke="none" fill="#6E6E6E" fill-rule="evenodd" stroke-width="0" fill-opacity="1" />
  <path d="M202.79998779296875,86.80984497070312 L197.0999755859375,89.02984619140625 L197.0999755859375,84.58985137939453 L202.79998779296875,86.80984497070312 " stroke="#6E6E6E" fill="none" stroke-width="1" stroke-opacity="1" />
  <path d="M187.79998779296875,336.4098815917969 L197.09999084472656,336.4098815917969 " stroke="#6E6E6E" fill="none" stroke-width="1" stroke-opacity="1" />
  <path d="M202.79998779296875,336.40985107421875 L197.0999755859375,338.6298522949219 L197.0999755859375,334.18988037109375 L202.79998779296875,336.40985107421875 " stroke="none" fill="#6E6E6E" fill-rule="evenodd" stroke-width="0" fill-opacity="1" />
  <path d="M202.79998779296875,336.40985107421875 L197.0999755859375,338.6298522949219 L197.0999755859375,334.18988037109375 L202.79998779296875,336.40985107421875 " stroke="#6E6E6E" fill="none" stroke-width="1" stroke-opacity="1" />
  <path d="M187.79998779296875,149.20985412597656 L197.09999084472656,149.20985412597656 " stroke="#6E6E6E" fill="none" stroke-width="1" stroke-opacity="1" />
  <path d="M202.79998779296875,149.2098388671875 L197.0999755859375,151.42984008789062 L197.0999755859375,146.98985290527344 L202.79998779296875,149.2098388671875 " stroke="none" fill="#6E6E6E" fill-rule="evenodd" stroke-width="0" fill-opacity="1" />
  <path d="M202.79998779296875,149.2098388671875 L197.0999755859375,151.42984008789062 L197.0999755859375,146.98985290527344 L202.79998779296875,149.2098388671875 " stroke="#6E6E6E" fill="none" stroke-width="1" stroke-opacity="1" />
  <path d="M187.79998779296875,211.60983276367188 L197.09999084472656,211.60983276367188 " stroke="#6E6E6E" fill="none" stroke-width="1" stroke-opacity="1" />
  <path d="M202.79998779296875,211.60983276367188 L197.0999755859375,213.829833984375 L197.0999755859375,209.3898468017578 L202.79998779296875,211.60983276367188 " stroke="none" fill="#6E6E6E" fill-rule="evenodd" stroke-width="0" fill-opacity="1" />
  <path d="M202.79998779296875,211.60983276367188 L197.0999755859375,213.829833984375 L197.0999755859375,209.3898468017578 L202.79998779296875,211.60983276367188 " stroke="#6E6E6E" fill="none" stroke-width="1" stroke-opacity="1" />
  <path d="M98.39999389648438,274.0098571777344 L107.69998931884766,274.0098571777344 " stroke="#6E6E6E" fill="none" stroke-width="1" stroke-opacity="1" />
  <path d="M113.39999389648438,274.00982666015625 L107.69998931884766,276.2298278808594 L107.69998931884766,271.78985595703125 L113.39999389648438,274.00982666015625 " stroke="none" fill="#6E6E6E" fill-rule="evenodd" stroke-width="0" fill-opacity="1" />
  <path d="M113.39999389648438,274.00982666015625 L107.69998931884766,276.2298278808594 L107.69998931884766,271.78985595703125 L113.39999389648438,274.00982666015625 " stroke="#6E6E6E" fill="none" stroke-width="1" stroke-opacity="1" />
  <path d="M98.39999389648438,86.80984497070312 L107.69998931884766,86.80984497070312 " stroke="#6E6E6E" fill="none" stroke-width="1" stroke-opacity="1" />
  <path d="M113.39999389648438,86.80984497070312 L107.69998931884766,89.02984619140625 L107.69998931884766,84.58985137939453 L113.39999389648438,86.80984497070312 " stroke="none" fill="#6E6E6E" fill-rule="evenodd" stroke-width="0" fill-opacity="1" />
  <path d="M113.39999389648438,86.80984497070312 L107.69998931884766,89.02984619140625 L107.69998931884766,84.58985137939453 L113.39999389648438,86.80984497070312 " stroke="#6E6E6E" fill="none" stroke-width="1" stroke-opacity="1" />
  <path d="M98.39999389648438,336.4098815917969 L107.69998931884766,336.4098815917969 " stroke="#6E6E6E" fill="none" stroke-width="1" stroke-opacity="1" />
  <path d="M113.39999389648438,336.40985107421875 L107.69998931884766,338.6298522949219 L107.69998931884766,334.18988037109375 L113.39999389648438,336.40985107421875 " stroke="none" fill="#6E6E6E" fill-rule="evenodd" stroke-width="0" fill-opacity="1" />
  <path d="M113.39999389648438,336.40985107421875 L107.69998931884766,338.6298522949219 L107.69998931884766,334.18988037109375 L113.39999389648438,336.40985107421875 " stroke="#6E6E6E" fill="none" stroke-width="1" stroke-opacity="1" />
  <path d="M98.39999389648438,149.20985412597656 L107.69998931884766,149.20985412597656 " stroke="#6E6E6E" fill="none" stroke-width="1" stroke-opacity="1" />
  <path d="M113.39999389648438,149.2098388671875 L107.69998931884766,151.42984008789062 L107.69998931884766,146.98985290527344 L113.39999389648438,149.2098388671875 " stroke="none" fill="#6E6E6E" fill-rule="evenodd" stroke-width="0" fill-opacity="1" />
  <path d="M113.39999389648438,149.2098388671875 L107.69998931884766,151.42984008789062 L107.69998931884766,146.98985290527344 L113.39999389648438,149.2098388671875 " stroke="#6E6E6E" fill="none" stroke-width="1" stroke-opacity="1" />
  <path d="M98.39999389648438,211.60983276367188 L107.69998931884766,211.60983276367188 " stroke="#6E6E6E" fill="none" stroke-width="1" stroke-opacity="1" />
  <path d="M113.39999389648438,211.60983276367188 L107.69998931884766,213.829833984375 L107.69998931884766,209.3898468017578 L113.39999389648438,211.60983276367188 " stroke="none" fill="#6E6E6E" fill-rule="evenodd" stroke-width="0" fill-opacity="1" />
  <path d="M113.39999389648438,211.60983276367188 L107.69998931884766,213.829833984375 L107.69998931884766,209.3898468017578 L113.39999389648438,211.60983276367188 " stroke="#6E6E6E" fill="none" stroke-width="1" stroke-opacity="1" />
  <path d="M121.9039306640625,250.30987548828125 L179.29605102539062,250.30987548828125 L179.29603576660156,250.30987548828125 C183.99261474609375,250.3098602294922 187.7999725341797,254.11720275878906 187.7999725341797,258.81378173828125 C187.7999725341797,258.81378173828125 187.7999725341797,258.8138122558594 187.7999725341797,258.8138122558594 L187.79998779296875,258.8138122558594 L187.79998779296875,289.2059326171875 L187.7999725341797,289.2059326171875 C187.7999725341797,293.90252685546875 183.99264526367188,297.7098693847656 179.29605102539062,297.7098693847656 L179.29605102539062,297.7098693847656 L121.9039306640625,297.7098693847656 L121.9039306640625,297.7098693847656 C117.20733642578125,297.7098693847656 113.39999389648438,293.90252685546875 113.39999389648438,289.2059326171875 L113.39999389648438,258.8138122558594 L113.39998626708984,258.8138122558594 C113.39998626708984,254.11721801757812 117.20732116699219,250.30987548828125 121.90391540527344,250.3098602294922 " stroke="none" fill="#F2E279" fill-rule="evenodd" stroke-width="0" fill-opacity="1" />
  <text x="22.608190536499023" y="35.284881591796875" dx="0" dy="0" font-family="Segoe UI" font-size="8.249999754130847pt" fill="#000000" style="text-anchor:start" transform="matrix(0.750000 0.000000 0.000000 0.750000 113.39999389648438 250.30987548828125)">Project (2)</text>
  <path d="M121.9039306640625,250.30987548828125 L179.29605102539062,250.30987548828125 L179.29603576660156,250.30987548828125 C183.99261474609375,250.3098602294922 187.7999725341797,254.11720275878906 187.7999725341797,258.81378173828125 C187.7999725341797,258.81378173828125 187.7999725341797,258.8138122558594 187.7999725341797,258.8138122558594 L187.79998779296875,258.8138122558594 L187.79998779296875,289.2059326171875 L187.7999725341797,289.2059326171875 C187.7999725341797,293.90252685546875 183.99264526367188,297.7098693847656 179.29605102539062,297.7098693847656 L179.29605102539062,297.7098693847656 L121.9039306640625,297.7098693847656 L121.9039306640625,297.7098693847656 C117.20733642578125,297.7098693847656 113.39999389648438,293.90252685546875 113.39999389648438,289.2059326171875 L113.39999389648438,258.8138122558594 L113.39998626708984,258.8138122558594 C113.39998626708984,254.11721801757812 117.20732116699219,250.30987548828125 121.90391540527344,250.3098602294922 " stroke="none" fill="none" stroke-width="0.75" stroke-opacity="0" />
  <path d="M345.7874450683594,274.0098571777344 C345.7874450683594,287.0989990234375 313.77862548828125,297.7098693847656 274.29376220703125,297.7098693847656 C234.80885314941406,297.7098693847656 202.8000030517578,287.0989990234375 202.79998779296875,274.0098571777344 C202.79998779296875,274.0098571777344 202.79998779296875,274.0098571777344 202.79998779296875,274.0098571777344 L202.7999725341797,274.0098876953125 C202.79994201660156,260.92071533203125 234.8087615966797,250.30987548828125 274.2936706542969,250.30987548828125 C313.778564453125,250.3098602294922 345.78741455078125,260.9206848144531 345.7874450683594,274.0098571777344 C345.7874450683594,274.0098571777344 345.7874450683594,274.0098571777344 345.7874450683594,274.0098571777344 " stroke="none" fill="#83CC7C" fill-rule="evenodd" stroke-width="0" fill-opacity="1" />
  <text x="19.896188735961914" y="35.284881591796875" dx="0" dy="0" font-family="Segoe UI" font-size="8.249999754130847pt" fill="#000000" style="text-anchor:start" transform="matrix(0.750000 0.000000 0.000000 0.750000 202.79998779296875 250.30987548828125)">subsaharan_health_fa_Project1</text>
  <path d="M345.7874450683594,274.0098571777344 C345.7874450683594,287.0989990234375 313.77862548828125,297.7098693847656 274.29376220703125,297.7098693847656 C234.80885314941406,297.7098693847656 202.8000030517578,287.0989990234375 202.79998779296875,274.0098571777344 C202.79998779296875,274.0098571777344 202.79998779296875,274.0098571777344 202.79998779296875,274.0098571777344 L202.7999725341797,274.0098876953125 C202.79994201660156,260.92071533203125 234.8087615966797,250.30987548828125 274.2936706542969,250.30987548828125 C313.778564453125,250.3098602294922 345.78741455078125,260.9206848144531 345.7874450683594,274.0098571777344 C345.7874450683594,274.0098571777344 345.7874450683594,274.0098571777344 345.7874450683594,274.0098571777344 " stroke="none" fill="none" stroke-width="0.75" stroke-opacity="0" />
  <path d="M121.9039306640625,63.1098518371582 L179.29605102539062,63.1098518371582 L179.29603576660156,63.1098518371582 C183.99261474609375,63.10984420776367 187.7999725341797,66.91717529296875 187.7999725341797,71.61378479003906 C187.7999725341797,71.61378479003906 187.7999725341797,71.61378479003906 187.7999725341797,71.61378479003906 L187.79998779296875,71.61378479003906 L187.79998779296875,102.00591278076172 L187.7999725341797,102.00590515136719 C187.7999725341797,106.70249938964844 183.99264526367188,110.50984191894531 179.29605102539062,110.50984954833984 L179.29605102539062,110.50984954833984 L121.9039306640625,110.50984954833984 L121.9039306640625,110.50984954833984 C117.20733642578125,110.50984954833984 113.39999389648438,106.70250701904297 113.39999389648438,102.00591278076172 L113.39999389648438,71.61378479003906 L113.39998626708984,71.6137924194336 C113.39998626708984,66.91719818115234 117.20732116699219,63.1098518371582 121.90391540527344,63.10984802246094 " stroke="none" fill="#F2E279" fill-rule="evenodd" stroke-width="0" fill-opacity="1" />
  <text x="22.608190536499023" y="35.284881591796875" dx="0" dy="0" font-family="Segoe UI" font-size="8.249999754130847pt" fill="#000000" style="text-anchor:start" transform="matrix(0.750000 0.000000 0.000000 0.750000 113.39999389648438 63.1098518371582)">Project (3)</text>
  <path d="M121.9039306640625,63.1098518371582 L179.29605102539062,63.1098518371582 L179.29603576660156,63.1098518371582 C183.99261474609375,63.10984420776367 187.7999725341797,66.91717529296875 187.7999725341797,71.61378479003906 C187.7999725341797,71.61378479003906 187.7999725341797,71.61378479003906 187.7999725341797,71.61378479003906 L187.79998779296875,71.61378479003906 L187.79998779296875,102.00591278076172 L187.7999725341797,102.00590515136719 C187.7999725341797,106.70249938964844 183.99264526367188,110.50984191894531 179.29605102539062,110.50984954833984 L179.29605102539062,110.50984954833984 L121.9039306640625,110.50984954833984 L121.9039306640625,110.50984954833984 C117.20733642578125,110.50984954833984 113.39999389648438,106.70250701904297 113.39999389648438,102.00591278076172 L113.39999389648438,71.61378479003906 L113.39998626708984,71.6137924194336 C113.39998626708984,66.91719818115234 117.20732116699219,63.1098518371582 121.90391540527344,63.10984802246094 " stroke="none" fill="none" stroke-width="0.75" stroke-opacity="0" />
  <path d="M342.0374450683594,86.80984497070312 C342.0374450683594,99.89899444580078 310.8680725097656,110.50984191894531 272.4187316894531,110.50984954833984 C233.96937561035156,110.50984954833984 202.79998779296875,99.89900207519531 202.79998779296875,86.80984497070312 C202.79998779296875,86.80984497070312 202.79998779296875,86.80984497070312 202.79998779296875,86.80984497070312 L202.7999725341797,86.80986785888672 C202.79994201660156,73.72071838378906 233.96929931640625,63.109859466552734 272.4186706542969,63.1098518371582 C310.8680419921875,63.109840393066406 342.03741455078125,73.7206802368164 342.0374450683594,86.80984497070312 C342.0374450683594,86.80984497070312 342.0374450683594,86.80984497070312 342.0374450683594,86.80984497070312 " stroke="none" fill="#83CC7C" fill-rule="evenodd" stroke-width="0" fill-opacity="1" />
  <text x="44.74968719482422" y="35.284881591796875" dx="0" dy="0" font-family="Segoe UI" font-size="8.249999754130847pt" fill="#000000" style="text-anchor:start" transform="matrix(0.750000 0.000000 0.000000 0.750000 202.79998779296875 63.1098518371582)">UGGE7AFL_Project</text>
  <path d="M342.0374450683594,86.80984497070312 C342.0374450683594,99.89899444580078 310.8680725097656,110.50984191894531 272.4187316894531,110.50984954833984 C233.96937561035156,110.50984954833984 202.79998779296875,99.89900207519531 202.79998779296875,86.80984497070312 C202.79998779296875,86.80984497070312 202.79998779296875,86.80984497070312 202.79998779296875,86.80984497070312 L202.7999725341797,86.80986785888672 C202.79994201660156,73.72071838378906 233.96929931640625,63.109859466552734 272.4186706542969,63.1098518371582 C310.8680419921875,63.109840393066406 342.03741455078125,73.7206802368164 342.0374450683594,86.80984497070312 C342.0374450683594,86.80984497070312 342.0374450683594,86.80984497070312 342.0374450683594,86.80984497070312 " stroke="none" fill="none" stroke-width="0.75" stroke-opacity="0" />
  <path d="M121.9039306640625,312.7098693847656 L179.29605102539062,312.7098693847656 L179.29603576660156,312.7098693847656 C183.99261474609375,312.7098388671875 187.7999725341797,316.5171813964844 187.7999725341797,321.2137756347656 C187.7999725341797,321.2137756347656 187.7999725341797,321.21380615234375 187.7999725341797,321.21380615234375 L187.79998779296875,321.21380615234375 L187.79998779296875,351.6059265136719 L187.7999725341797,351.6059265136719 C187.7999725341797,356.3025207519531 183.99264526367188,360.10986328125 179.29605102539062,360.10986328125 L179.29605102539062,360.10986328125 L121.9039306640625,360.10986328125 L121.9039306640625,360.10986328125 C117.20733642578125,360.10986328125 113.39999389648438,356.3025207519531 113.39999389648438,351.6059265136719 L113.39999389648438,321.21380615234375 L113.39998626708984,321.21380615234375 C113.39998626708984,316.5172119140625 117.20732116699219,312.7098693847656 121.90391540527344,312.7098388671875 " stroke="none" fill="#F2E279" fill-rule="evenodd" stroke-width="0" fill-opacity="1" />
  <text x="22.608190536499023" y="35.284881591796875" dx="0" dy="0" font-family="Segoe UI" font-size="8.249999754130847pt" fill="#000000" style="text-anchor:start" transform="matrix(0.750000 0.000000 0.000000 0.750000 113.39999389648438 312.7098693847656)">Project (4)</text>
  <path d="M121.9039306640625,312.7098693847656 L179.29605102539062,312.7098693847656 L179.29603576660156,312.7098693847656 C183.99261474609375,312.7098388671875 187.7999725341797,316.5171813964844 187.7999725341797,321.2137756347656 C187.7999725341797,321.2137756347656 187.7999725341797,321.21380615234375 187.7999725341797,321.21380615234375 L187.79998779296875,321.21380615234375 L187.79998779296875,351.6059265136719 L187.7999725341797,351.6059265136719 C187.7999725341797,356.3025207519531 183.99264526367188,360.10986328125 179.29605102539062,360.10986328125 L179.29605102539062,360.10986328125 L121.9039306640625,360.10986328125 L121.9039306640625,360.10986328125 C117.20733642578125,360.10986328125 113.39999389648438,356.3025207519531 113.39999389648438,351.6059265136719 L113.39999389648438,321.21380615234375 L113.39998626708984,321.21380615234375 C113.39998626708984,316.5172119140625 117.20732116699219,312.7098693847656 121.90391540527344,312.7098388671875 " stroke="none" fill="none" stroke-width="0.75" stroke-opacity="0" />
  <path d="M341.2874450683594,336.40985107421875 C341.2874450683594,349.4989929199219 310.2859802246094,360.10986328125 272.0437316894531,360.10986328125 C233.80149841308594,360.10986328125 202.8000030517578,349.4990234375 202.7999725341797,336.4098815917969 L202.7999725341797,336.4098815917969 C202.79994201660156,323.3207092285156 233.8013916015625,312.7098693847656 272.0436706542969,312.7098693847656 C310.2859191894531,312.7098388671875 341.28741455078125,323.3206787109375 341.2874450683594,336.40985107421875 C341.2874450683594,336.40985107421875 341.2874450683594,336.40985107421875 341.2874450683594,336.40985107421875 " stroke="none" fill="#83CC7C" fill-rule="evenodd" stroke-width="0" fill-opacity="1" />
  <text x="17.035188674926758" y="35.284881591796875" dx="0" dy="0" font-family="Segoe UI" font-size="8.249999754130847pt" fill="#000000" style="text-anchor:start" transform="matrix(0.750000 0.000000 0.000000 0.750000 202.79998779296875 312.7098693847656)">hotosm_uga_roads_lin_Project</text>
  <path d="M341.2874450683594,336.40985107421875 C341.2874450683594,349.4989929199219 310.2859802246094,360.10986328125 272.0437316894531,360.10986328125 C233.80149841308594,360.10986328125 202.8000030517578,349.4990234375 202.7999725341797,336.4098815917969 L202.7999725341797,336.4098815917969 C202.79994201660156,323.3207092285156 233.8013916015625,312.7098693847656 272.0436706542969,312.7098693847656 C310.2859191894531,312.7098388671875 341.28741455078125,323.3206787109375 341.2874450683594,336.40985107421875 C341.2874450683594,336.40985107421875 341.2874450683594,336.40985107421875 341.2874450683594,336.40985107421875 " stroke="none" fill="none" stroke-width="0.75" stroke-opacity="0" />
  <path d="M121.9039306640625,125.50985717773438 L179.29605102539062,125.50985717773438 L179.29603576660156,125.50985717773438 C183.99261474609375,125.50984954833984 187.7999725341797,129.3171844482422 187.7999725341797,134.01377868652344 C187.7999725341797,134.01377868652344 187.7999725341797,134.0137939453125 187.7999725341797,134.0137939453125 L187.79998779296875,134.0137939453125 L187.79998779296875,164.40591430664062 L187.7999725341797,164.40591430664062 C187.7999725341797,169.10250854492188 183.99264526367188,172.90985107421875 179.29605102539062,172.90985107421875 L179.29605102539062,172.90985107421875 L121.9039306640625,172.90985107421875 L121.9039306640625,172.90985107421875 C117.20733642578125,172.90985107421875 113.39999389648438,169.10250854492188 113.39999389648438,164.40591430664062 L113.39999389648438,134.0137939453125 L113.39998626708984,134.0137939453125 C113.39998626708984,129.31719970703125 117.20732116699219,125.50985717773438 121.90391540527344,125.50984954833984 " stroke="none" fill="#F2E279" fill-rule="evenodd" stroke-width="0" fill-opacity="1" />
  <text x="22.608190536499023" y="35.284881591796875" dx="0" dy="0" font-family="Segoe UI" font-size="8.249999754130847pt" fill="#000000" style="text-anchor:start" transform="matrix(0.750000 0.000000 0.000000 0.750000 113.39999389648438 125.50985717773438)">Project (5)</text>
  <path d="M121.9039306640625,125.50985717773438 L179.29605102539062,125.50985717773438 L179.29603576660156,125.50985717773438 C183.99261474609375,125.50984954833984 187.7999725341797,129.3171844482422 187.7999725341797,134.01377868652344 C187.7999725341797,134.01377868652344 187.7999725341797,134.0137939453125 187.7999725341797,134.0137939453125 L187.79998779296875,134.0137939453125 L187.79998779296875,164.40591430664062 L187.7999725341797,164.40591430664062 C187.7999725341797,169.10250854492188 183.99264526367188,172.90985107421875 179.29605102539062,172.90985107421875 L179.29605102539062,172.90985107421875 L121.9039306640625,172.90985107421875 L121.9039306640625,172.90985107421875 C117.20733642578125,172.90985107421875 113.39999389648438,169.10250854492188 113.39999389648438,164.40591430664062 L113.39999389648438,134.0137939453125 L113.39998626708984,134.0137939453125 C113.39998626708984,129.31719970703125 117.20732116699219,125.50985717773438 121.90391540527344,125.50984954833984 " stroke="none" fill="none" stroke-width="0.75" stroke-opacity="0" />
  <path d="M342.7874450683594,149.2098388671875 C342.7874450683594,162.2989959716797 311.4501953125,172.90985107421875 272.7937316894531,172.90985107421875 C234.13726806640625,172.90985107421875 202.79998779296875,162.2989959716797 202.79998779296875,149.20985412597656 C202.79998779296875,149.20985412597656 202.79998779296875,149.20985412597656 202.79998779296875,149.20985412597656 L202.7999725341797,149.20986938476562 C202.79994201660156,136.12071228027344 234.13719177246094,125.5098648071289 272.7936706542969,125.50985717773438 C311.45013427734375,125.50984191894531 342.7874450683594,136.1206817626953 342.7874450683594,149.20985412597656 C342.7874450683594,149.20985412597656 342.7874450683594,149.20985412597656 342.7874450683594,149.20985412597656 " stroke="none" fill="#83CC7C" fill-rule="evenodd" stroke-width="0" fill-opacity="1" />
  <text x="19.915189743041992" y="35.284881591796875" dx="0" dy="0" font-family="Segoe UI" font-size="8.249999754130847pt" fill="#000000" style="text-anchor:start" transform="matrix(0.750000 0.000000 0.000000 0.750000 202.79998779296875 125.50985717773438)">uga_water_areas_dcw_Project</text>
  <path d="M342.7874450683594,149.2098388671875 C342.7874450683594,162.2989959716797 311.4501953125,172.90985107421875 272.7937316894531,172.90985107421875 C234.13726806640625,172.90985107421875 202.79998779296875,162.2989959716797 202.79998779296875,149.20985412597656 C202.79998779296875,149.20985412597656 202.79998779296875,149.20985412597656 202.79998779296875,149.20985412597656 L202.7999725341797,149.20986938476562 C202.79994201660156,136.12071228027344 234.13719177246094,125.5098648071289 272.7936706542969,125.50985717773438 C311.45013427734375,125.50984191894531 342.7874450683594,136.1206817626953 342.7874450683594,149.20985412597656 C342.7874450683594,149.20985412597656 342.7874450683594,149.20985412597656 342.7874450683594,149.20985412597656 " stroke="none" fill="none" stroke-width="0.75" stroke-opacity="0" />
  <path d="M121.9039306640625,187.90985107421875 L179.29605102539062,187.90985107421875 L179.29603576660156,187.90985107421875 C183.99261474609375,187.9098358154297 187.7999725341797,191.71717834472656 187.7999725341797,196.4137725830078 C187.7999725341797,196.4137725830078 187.7999725341797,196.41378784179688 187.7999725341797,196.41378784179688 L187.79998779296875,196.41378784179688 L187.79998779296875,226.805908203125 L187.7999725341797,226.805908203125 C187.7999725341797,231.50250244140625 183.99264526367188,235.30984497070312 179.29605102539062,235.30984497070312 L179.29605102539062,235.30984497070312 L121.9039306640625,235.30984497070312 L121.9039306640625,235.30984497070312 C117.20733642578125,235.30984497070312 113.39999389648438,231.50250244140625 113.39999389648438,226.805908203125 L113.39999389648438,196.41378784179688 L113.39998626708984,196.41378784179688 C113.39998626708984,191.71719360351562 117.20732116699219,187.90985107421875 121.90391540527344,187.9098358154297 " stroke="none" fill="#F2E279" fill-rule="evenodd" stroke-width="0" fill-opacity="1" />
  <text x="22.608190536499023" y="35.284881591796875" dx="0" dy="0" font-family="Segoe UI" font-size="8.249999754130847pt" fill="#000000" style="text-anchor:start" transform="matrix(0.750000 0.000000 0.000000 0.750000 113.39999389648438 187.90985107421875)">Project (6)</text>
  <path d="M121.9039306640625,187.90985107421875 L179.29605102539062,187.90985107421875 L179.29603576660156,187.90985107421875 C183.99261474609375,187.9098358154297 187.7999725341797,191.71717834472656 187.7999725341797,196.4137725830078 C187.7999725341797,196.4137725830078 187.7999725341797,196.41378784179688 187.7999725341797,196.41378784179688 L187.79998779296875,196.41378784179688 L187.79998779296875,226.805908203125 L187.7999725341797,226.805908203125 C187.7999725341797,231.50250244140625 183.99264526367188,235.30984497070312 179.29605102539062,235.30984497070312 L179.29605102539062,235.30984497070312 L121.9039306640625,235.30984497070312 L121.9039306640625,235.30984497070312 C117.20733642578125,235.30984497070312 113.39999389648438,231.50250244140625 113.39999389648438,226.805908203125 L113.39999389648438,196.41378784179688 L113.39998626708984,196.41378784179688 C113.39998626708984,191.71719360351562 117.20732116699219,187.90985107421875 121.90391540527344,187.9098358154297 " stroke="none" fill="none" stroke-width="0.75" stroke-opacity="0" />
  <path d="M342.7874450683594,211.60983276367188 C342.7874450683594,224.69898986816406 311.4501953125,235.30984497070312 272.7937316894531,235.30984497070312 C234.13726806640625,235.30984497070312 202.79998779296875,224.69898986816406 202.79998779296875,211.60984802246094 C202.79998779296875,211.60984802246094 202.79998779296875,211.60984802246094 202.79998779296875,211.60984802246094 L202.7999725341797,211.60986328125 C202.79994201660156,198.5207061767578 234.13719177246094,187.90985107421875 272.7936706542969,187.90985107421875 C311.45013427734375,187.9098358154297 342.7874450683594,198.5206756591797 342.7874450683594,211.60984802246094 C342.7874450683594,211.60984802246094 342.7874450683594,211.60984802246094 342.7874450683594,211.60984802246094 " stroke="none" fill="#83CC7C" fill-rule="evenodd" stroke-width="0" fill-opacity="1" />
  <text x="9.345189094543457" y="35.284881591796875" dx="0" dy="0" font-family="Segoe UI" font-size="8.249999754130847pt" fill="#000000" style="text-anchor:start" transform="matrix(0.750000 0.000000 0.000000 0.750000 202.79998779296875 187.90985107421875)">uga_admbnda_adm0_ubo_Project</text>
  <path d="M342.7874450683594,211.60983276367188 C342.7874450683594,224.69898986816406 311.4501953125,235.30984497070312 272.7937316894531,235.30984497070312 C234.13726806640625,235.30984497070312 202.79998779296875,224.69898986816406 202.79998779296875,211.60984802246094 C202.79998779296875,211.60984802246094 202.79998779296875,211.60984802246094 202.79998779296875,211.60984802246094 L202.7999725341797,211.60986328125 C202.79994201660156,198.5207061767578 234.13719177246094,187.90985107421875 272.7936706542969,187.90985107421875 C311.45013427734375,187.9098358154297 342.7874450683594,198.5206756591797 342.7874450683594,211.60984802246094 C342.7874450683594,211.60984802246094 342.7874450683594,211.60984802246094 342.7874450683594,211.60984802246094 " stroke="none" fill="none" stroke-width="0.75" stroke-opacity="0" />
  <path d="M98.39998626708984,274.0098571777344 C98.39998626708984,287.0989990234375 81.74497985839844,297.7098693847656 61.20001220703125,297.7098693847656 C40.655025482177734,297.7098693847656 24.00001335144043,287.0990295410156 23.999996185302734,274.0098876953125 L23.9999942779541,274.0098876953125 C23.999977111816406,260.92071533203125 40.654972076416016,250.30987548828125 61.1999626159668,250.30987548828125 C81.74494934082031,250.3098602294922 98.39996337890625,260.9206848144531 98.39998626708984,274.0098571777344 C98.39998626708984,274.0098571777344 98.39998626708984,274.0098571777344 98.39998626708984,274.0098571777344 " stroke="none" fill="#70AECC" fill-rule="evenodd" stroke-width="0" fill-opacity="1" />
  <text x="37.096187591552734" y="27.96988296508789" dx="0" dy="0" font-family="Segoe UI" font-size="8.249999754130847pt" fill="#000000" style="text-anchor:start" transform="matrix(0.750000 0.000000 0.000000 0.750000 24 250.30987548828125)">sub</text>
  <text x="54.58818817138672" y="27.96988296508789" dx="0" dy="0" font-family="Segoe UI" font-size="8.249999754130847pt" fill="#000000" style="text-anchor:start" transform="matrix(0.750000 0.000000 0.000000 0.750000 24 250.30987548828125)">-</text>
  <text x="3.6928558349609375" y="42.599884033203125" dx="0" dy="0" font-family="Segoe UI" font-size="8.249999754130847pt" fill="#000000" style="text-anchor:start" transform="matrix(0.750000 0.000000 0.000000 0.750000 24 250.30987548828125)">saharan_health_f</text>
  <text x="82.49652862548828" y="42.599884033203125" dx="0" dy="0" font-family="Segoe UI" font-size="8.249999754130847pt" fill="#000000" style="text-anchor:start" transform="matrix(0.750000 0.000000 0.000000 0.750000 24 250.30987548828125)"> ...</text>
  <path d="M98.39998626708984,274.0098571777344 C98.39998626708984,287.0989990234375 81.74497985839844,297.7098693847656 61.20001220703125,297.7098693847656 C40.655025482177734,297.7098693847656 24.00001335144043,287.0990295410156 23.999996185302734,274.0098876953125 L23.9999942779541,274.0098876953125 C23.999977111816406,260.92071533203125 40.654972076416016,250.30987548828125 61.1999626159668,250.30987548828125 C81.74494934082031,250.3098602294922 98.39996337890625,260.9206848144531 98.39998626708984,274.0098571777344 C98.39998626708984,274.0098571777344 98.39998626708984,274.0098571777344 98.39998626708984,274.0098571777344 " stroke="none" fill="none" stroke-width="0.75" stroke-opacity="0" />
  <path d="M98.39998626708984,86.80984497070312 C98.39998626708984,99.89898681640625 81.74497985839844,110.50984191894531 61.20001220703125,110.50984954833984 C40.655025482177734,110.50984954833984 24.00001335144043,99.89900970458984 23.999996185302734,86.80986022949219 L23.9999942779541,86.80986785888672 C23.999977111816406,73.72071838378906 40.654972076416016,63.109859466552734 61.1999626159668,63.1098518371582 C81.74494934082031,63.109840393066406 98.39996337890625,73.7206802368164 98.39998626708984,86.80984497070312 C98.39998626708984,86.80984497070312 98.39998626708984,86.80984497070312 98.39998626708984,86.80984497070312 " stroke="none" fill="#70AECC" fill-rule="evenodd" stroke-width="0" fill-opacity="1" />
  <text x="20.636356353759766" y="35.284881591796875" dx="0" dy="0" font-family="Segoe UI" font-size="8.249999754130847pt" fill="#000000" style="text-anchor:start" transform="matrix(0.750000 0.000000 0.000000 0.750000 24 63.1098518371582)">UGGE7AFL</text>
  <path d="M98.39998626708984,86.80984497070312 C98.39998626708984,99.89898681640625 81.74497985839844,110.50984191894531 61.20001220703125,110.50984954833984 C40.655025482177734,110.50984954833984 24.00001335144043,99.89900970458984 23.999996185302734,86.80986022949219 L23.9999942779541,86.80986785888672 C23.999977111816406,73.72071838378906 40.654972076416016,63.109859466552734 61.1999626159668,63.1098518371582 C81.74494934082031,63.109840393066406 98.39996337890625,73.7206802368164 98.39998626708984,86.80984497070312 C98.39998626708984,86.80984497070312 98.39998626708984,86.80984497070312 98.39998626708984,86.80984497070312 " stroke="none" fill="none" stroke-width="0.75" stroke-opacity="0" />
  <path d="M98.39998626708984,336.40985107421875 C98.39998626708984,349.4989929199219 81.74497985839844,360.10986328125 61.20001220703125,360.10986328125 C40.655025482177734,360.10986328125 24.00001335144043,349.4990234375 23.999996185302734,336.4098815917969 L23.9999942779541,336.4098815917969 C23.999977111816406,323.3207092285156 40.654972076416016,312.7098693847656 61.1999626159668,312.7098693847656 C81.74494934082031,312.7098388671875 98.39996337890625,323.3206787109375 98.39998626708984,336.40985107421875 C98.39998626708984,336.40985107421875 98.39998626708984,336.40985107421875 98.39998626708984,336.40985107421875 " stroke="none" fill="#70AECC" fill-rule="evenodd" stroke-width="0" fill-opacity="1" />
  <text x="3.0218558311462402" y="35.284881591796875" dx="0" dy="0" font-family="Segoe UI" font-size="8.249999754130847pt" fill="#000000" style="text-anchor:start" transform="matrix(0.750000 0.000000 0.000000 0.750000 24 312.7098693847656)">hotosm_uga_roa</text>
  <text x="82.38985443115234" y="35.284881591796875" dx="0" dy="0" font-family="Segoe UI" font-size="8.249999754130847pt" fill="#000000" style="text-anchor:start" transform="matrix(0.750000 0.000000 0.000000 0.750000 24 312.7098693847656)"> ...</text>
  <path d="M98.39998626708984,336.40985107421875 C98.39998626708984,349.4989929199219 81.74497985839844,360.10986328125 61.20001220703125,360.10986328125 C40.655025482177734,360.10986328125 24.00001335144043,349.4990234375 23.999996185302734,336.4098815917969 L23.9999942779541,336.4098815917969 C23.999977111816406,323.3207092285156 40.654972076416016,312.7098693847656 61.1999626159668,312.7098693847656 C81.74494934082031,312.7098388671875 98.39996337890625,323.3206787109375 98.39998626708984,336.40985107421875 C98.39998626708984,336.40985107421875 98.39998626708984,336.40985107421875 98.39998626708984,336.40985107421875 " stroke="none" fill="none" stroke-width="0.75" stroke-opacity="0" />
  <path d="M98.39998626708984,149.2098388671875 C98.39998626708984,162.2989959716797 81.74497985839844,172.90985107421875 61.20001220703125,172.90985107421875 C40.655025482177734,172.90985107421875 24.00001335144043,162.29901123046875 23.999996185302734,149.20986938476562 L23.9999942779541,149.20986938476562 C23.999977111816406,136.12071228027344 40.654972076416016,125.5098648071289 61.1999626159668,125.50985717773438 C81.74494934082031,125.50984191894531 98.39996337890625,136.1206817626953 98.39998626708984,149.20985412597656 C98.39998626708984,149.20985412597656 98.39998626708984,149.20985412597656 98.39998626708984,149.20985412597656 " stroke="none" fill="#70AECC" fill-rule="evenodd" stroke-width="0" fill-opacity="1" />
  <text x="3.3018555641174316" y="35.284881591796875" dx="0" dy="0" font-family="Segoe UI" font-size="8.249999754130847pt" fill="#000000" style="text-anchor:start" transform="matrix(0.750000 0.000000 0.000000 0.750000 24 125.50985717773438)">uga_water_areas</text>
  <text x="82.10319519042969" y="35.284881591796875" dx="0" dy="0" font-family="Segoe UI" font-size="8.249999754130847pt" fill="#000000" style="text-anchor:start" transform="matrix(0.750000 0.000000 0.000000 0.750000 24 125.50985717773438)"> ...</text>
  <path d="M98.39998626708984,149.2098388671875 C98.39998626708984,162.2989959716797 81.74497985839844,172.90985107421875 61.20001220703125,172.90985107421875 C40.655025482177734,172.90985107421875 24.00001335144043,162.29901123046875 23.999996185302734,149.20986938476562 L23.9999942779541,149.20986938476562 C23.999977111816406,136.12071228027344 40.654972076416016,125.5098648071289 61.1999626159668,125.50985717773438 C81.74494934082031,125.50984191894531 98.39996337890625,136.1206817626953 98.39998626708984,149.20985412597656 C98.39998626708984,149.20985412597656 98.39998626708984,149.20985412597656 98.39998626708984,149.20985412597656 " stroke="none" fill="none" stroke-width="0.75" stroke-opacity="0" />
  <path d="M98.39998626708984,211.60983276367188 C98.39998626708984,224.69898986816406 81.74497985839844,235.30984497070312 61.20001220703125,235.30984497070312 C40.655025482177734,235.30984497070312 24.00001335144043,224.69900512695312 23.999996185302734,211.60986328125 L23.9999942779541,211.60986328125 C23.999977111816406,198.5207061767578 40.654972076416016,187.90985107421875 61.1999626159668,187.90985107421875 C81.74494934082031,187.9098358154297 98.39996337890625,198.5206756591797 98.39998626708984,211.60984802246094 C98.39998626708984,211.60984802246094 98.39998626708984,211.60984802246094 98.39998626708984,211.60984802246094 " stroke="none" fill="#70AECC" fill-rule="evenodd" stroke-width="0" fill-opacity="1" />
  <text x="3.4918556213378906" y="35.284881591796875" dx="0" dy="0" font-family="Segoe UI" font-size="8.249999754130847pt" fill="#000000" style="text-anchor:start" transform="matrix(0.750000 0.000000 0.000000 0.750000 24 187.90985107421875)">uga_admbnda_a</text>
  <text x="81.9165267944336" y="35.284881591796875" dx="0" dy="0" font-family="Segoe UI" font-size="8.249999754130847pt" fill="#000000" style="text-anchor:start" transform="matrix(0.750000 0.000000 0.000000 0.750000 24 187.90985107421875)"> ...</text>
  <path d="M98.39998626708984,211.60983276367188 C98.39998626708984,224.69898986816406 81.74497985839844,235.30984497070312 61.20001220703125,235.30984497070312 C40.655025482177734,235.30984497070312 24.00001335144043,224.69900512695312 23.999996185302734,211.60986328125 L23.9999942779541,211.60986328125 C23.999977111816406,198.5207061767578 40.654972076416016,187.90985107421875 61.1999626159668,187.90985107421875 C81.74494934082031,187.9098358154297 98.39996337890625,198.5206756591797 98.39998626708984,211.60984802246094 C98.39998626708984,211.60984802246094 98.39998626708984,211.60984802246094 98.39998626708984,211.60984802246094 " stroke="none" fill="none" stroke-width="0.75" stroke-opacity="0" />
  <path d="M97.64998626708984,392.50982666015625 C97.64998626708984,405.5989685058594 80.99497985839844,416.2098388671875 60.45001220703125,416.2098388671875 C39.905025482177734,416.2098388671875 23.25001335144043,405.5989990234375 23.249996185302734,392.5098571777344 L23.2499942779541,392.5098571777344 C23.249977111816406,379.4206848144531 39.904972076416016,368.8098449707031 60.4499626159668,368.8098449707031 C80.99494934082031,368.809814453125 97.64996337890625,379.420654296875 97.64998626708984,392.50982666015625 C97.64998626708984,392.50982666015625 97.64998626708984,392.50982666015625 97.64998626708984,392.50982666015625 " stroke="none" fill="#70AECC" fill-rule="evenodd" stroke-width="0" fill-opacity="1" />
  <text x="1.8230223655700684" y="35.284881591796875" dx="0" dy="0" font-family="Segoe UI" font-size="8.249999754130847pt" fill="#000000" style="text-anchor:start" transform="matrix(0.750000 0.000000 0.000000 0.750000 23.25 368.8098449707031)">Uganda_Sentinel</text>
  <text x="82.9231948852539" y="35.284881591796875" dx="0" dy="0" font-family="Segoe UI" font-size="8.249999754130847pt" fill="#000000" style="text-anchor:start" transform="matrix(0.750000 0.000000 0.000000 0.750000 23.25 368.8098449707031)"> ...</text>
  <path d="M97.64998626708984,392.50982666015625 C97.64998626708984,405.5989685058594 80.99497985839844,416.2098388671875 60.45001220703125,416.2098388671875 C39.905025482177734,416.2098388671875 23.25001335144043,405.5989990234375 23.249996185302734,392.5098571777344 L23.2499942779541,392.5098571777344 C23.249977111816406,379.4206848144531 39.904972076416016,368.8098449707031 60.4499626159668,368.8098449707031 C80.99494934082031,368.809814453125 97.64996337890625,379.420654296875 97.64998626708984,392.50982666015625 C97.64998626708984,392.50982666015625 97.64998626708984,392.50982666015625 97.64998626708984,392.50982666015625 " stroke="none" fill="none" stroke-width="0.75" stroke-opacity="0" />
  <path d="M99.14998626708984,451.1598205566406 C99.14998626708984,464.24896240234375 82.49497985839844,474.8598327636719 61.95001220703125,474.8598327636719 C41.405025482177734,474.8598327636719 24.75001335144043,464.2489929199219 24.749996185302734,451.15985107421875 L24.7499942779541,451.15985107421875 C24.749977111816406,438.0706787109375 41.404972076416016,427.4598388671875 61.9499626159668,427.4598388671875 C82.49494934082031,427.4598083496094 99.14996337890625,438.0706481933594 99.14998626708984,451.1598205566406 C99.14998626708984,451.1598205566406 99.14998626708984,451.1598205566406 99.14998626708984,451.1598205566406 " stroke="none" fill="#70AECC" fill-rule="evenodd" stroke-width="0" fill-opacity="1" />
  <text x="1.53635573387146" y="35.284881591796875" dx="0" dy="0" font-family="Segoe UI" font-size="8.249999754130847pt" fill="#000000" style="text-anchor:start" transform="matrix(0.750000 0.000000 0.000000 0.750000 24.75 427.4598388671875)">Uganda_SRTM30</text>
  <text x="83.2098617553711" y="35.284881591796875" dx="0" dy="0" font-family="Segoe UI" font-size="8.249999754130847pt" fill="#000000" style="text-anchor:start" transform="matrix(0.750000 0.000000 0.000000 0.750000 24.75 427.4598388671875)"> ...</text>
  <path d="M99.14998626708984,451.1598205566406 C99.14998626708984,464.24896240234375 82.49497985839844,474.8598327636719 61.95001220703125,474.8598327636719 C41.405025482177734,474.8598327636719 24.75001335144043,464.2489929199219 24.749996185302734,451.15985107421875 L24.7499942779541,451.15985107421875 C24.749977111816406,438.0706787109375 41.404972076416016,427.4598388671875 61.9499626159668,427.4598388671875 C82.49494934082031,427.4598083496094 99.14996337890625,438.0706481933594 99.14998626708984,451.1598205566406 C99.14998626708984,451.1598205566406 99.14998626708984,451.1598205566406 99.14998626708984,451.1598205566406 " stroke="none" fill="none" stroke-width="0.75" stroke-opacity="0" />
  <path d="M1316.75,35.871604919433594 L1540.779541015625,35.871604919433594 L1540.779541015625,73.3716049194336 L1316.75,73.3716049194336 L1316.75,35.871604919433594 " stroke="none" fill="none" fill-rule="evenodd" stroke-width="0" fill-opacity="0" />
  <text x="29.59485626220703" y="33.039894104003906" dx="0" dy="0" font-family="Segoe UI" font-size="17.99999946355821pt" fill="#555555" style="text-anchor:start" font-weight="bold" transform="matrix(0.750000 0.000000 0.000000 0.750000 1316.75 35.871604919433594)">Further analysis in R</text>
  <path d="M1316.75,35.871604919433594 L1540.779541015625,35.871604919433594 L1540.779541015625,73.3716049194336 L1316.75,73.3716049194336 L1316.75,35.871604919433594 " stroke="none" fill="none" stroke-width="0.75" stroke-opacity="0" />
</svg>